<?xml version="1.0" encoding="UTF-8"?>
<svg fill='#F2B90F' width="700pt" height="700pt" version="1.1" viewBox="0 0 700 700" xmlns="http://www.w3.org/2000/svg" xmlns:xlink="http://www.w3.org/1999/xlink">
 <g>
  <path d="m158.59 129.61c8.0391 0.007813 15.902-2.3633 22.598-6.8125l15.379 15.379c5.2227-2.5977 10.5-5.0547 15.836-7.3711l-19.609-19.609v-0.003906c6.75-10.234 8.5664-22.953 4.9492-34.668-3.6172-11.715-12.289-21.199-23.633-25.844-11.348-4.6484-24.18-3.9688-34.973 1.8438-10.797 5.8125-18.422 16.152-20.785 28.184-2.3672 12.031 0.77734 24.488 8.5664 33.957 7.793 9.4648 19.41 14.949 31.672 14.945z"/>
  <path d="m541.41 430.39c-8.0391-0.007813-15.902 2.3633-22.598 6.8125l-15.379-15.379c-5.2148 2.5977-10.492 5.0547-15.836 7.3711l19.609 19.609v0.003906c-6.75 10.234-8.5664 22.953-4.9492 34.668 3.6172 11.715 12.289 21.199 23.633 25.844 11.348 4.6484 24.18 3.9688 34.973-1.8438 10.797-5.8125 18.422-16.152 20.785-28.184 2.3672-12.031-0.77734-24.488-8.5664-33.957-7.793-9.4648-19.41-14.949-31.672-14.945z"/>
  <path d="m341.8 81.211v21.164c2.7344-0.066406 5.4688-0.10938 8.2031-0.10938s5.4688 0 8.2031 0.10938v-21.164c13.398-2.7344 24.551-11.965 29.742-24.617 5.1914-12.652 3.7344-27.059-3.8789-38.414-7.6172-11.355-20.391-18.172-34.066-18.172s-26.449 6.8164-34.066 18.172c-7.6133 11.355-9.0703 25.762-3.8789 38.414 5.1914 12.652 16.344 21.883 29.742 24.617z"/>
  <path d="m358.2 478.79v-21.164c-2.7344 0.066406-5.4688 0.10938-8.2031 0.10938s-5.4688 0-8.2031-0.10938v21.164c-13.398 2.7344-24.551 11.965-29.742 24.617-5.1914 12.652-3.7344 27.059 3.8789 38.414 7.6172 11.355 20.391 18.172 34.066 18.172s26.449-6.8164 34.066-18.172c7.6133-11.355 9.0703-25.762 3.8789-38.414-5.1914-12.652-16.344-21.883-29.742-24.617z"/>
  <path d="m503.43 138.17 15.379-15.379v0.003906c11.426 7.5547 25.863 8.918 38.504 3.6367 12.637-5.2812 21.812-16.516 24.461-29.953 2.6523-13.438-1.5703-27.312-11.254-37-9.6875-9.6836-23.562-13.906-37-11.254-13.438 2.6484-24.672 11.824-29.953 24.461-5.2812 12.641-3.918 27.078 3.6367 38.504l-19.609 19.609c5.3359 2.3203 10.617 4.7773 15.836 7.3711z"/>
  <path d="m196.57 421.83-15.379 15.379v-0.003906c-11.426-7.5547-25.863-8.918-38.504-3.6367-12.637 5.2812-21.812 16.516-24.461 29.953-2.6523 13.438 1.5703 27.312 11.254 37 9.6875 9.6836 23.562 13.906 37 11.254 13.438-2.6484 24.672-11.824 29.953-24.461 5.2812-12.641 3.918-27.078-3.6367-38.504l19.609-19.609c-5.3359-2.3203-10.617-4.7773-15.836-7.3711z"/>
  <path d="m340.34 247.19v-1.4102c-8.0859 2.2734-15.105 7.3359-19.816 14.293-4.707 6.9531-6.8008 15.352-5.9102 23.703 0.89453 8.3516 4.7148 16.117 10.785 21.922 6.0742 5.8008 14.004 9.2695 22.387 9.7812 8.3828 0.51563 16.68-1.957 23.414-6.9766s11.477-12.258 13.383-20.438c-1.0938 0.085938-2.1875 0.14062-3.2812 0.14062-10.867-0.027344-21.277-4.3555-28.957-12.047-7.6758-7.6875-11.992-18.105-12.004-28.969z"/>
  <path d="m405.97 247.19c0 13.59-11.02 24.609-24.609 24.609-13.594 0-24.609-11.02-24.609-24.609s11.016-24.609 24.609-24.609c13.59 0 24.609 11.02 24.609 24.609"/>
  <path d="m350 178.83c-26.832 0-52.566 10.66-71.539 29.633-18.973 18.973-29.633 44.707-29.633 71.539s10.66 52.566 29.633 71.539c18.973 18.973 44.707 29.633 71.539 29.633s52.566-10.66 71.539-29.633c18.973-18.973 29.633-44.707 29.633-71.539-0.03125-26.824-10.703-52.539-29.668-71.504s-44.68-29.637-71.504-29.668zm51.887 103.84c-0.67969 13.32-6.4609 25.867-16.137 35.043-9.6797 9.1797-22.516 14.281-35.855 14.254-13.336-0.027344-26.152-5.1836-35.793-14.398-9.6406-9.2188-15.367-21.789-15.996-35.109-0.625-13.324 3.8945-26.375 12.625-36.457s21.008-16.422 34.281-17.703c5.9336-11.477 16.93-19.488 29.676-21.613 12.742-2.1289 25.746 1.875 35.086 10.805 9.3398 8.9258 13.926 21.734 12.375 34.562-1.5547 12.828-9.0625 24.176-20.262 30.617z"/>
  <path d="m628.91 275.82c-28.148-47.25-67.996-86.449-115.71-113.81-49.703-28.398-105.96-43.336-163.2-43.336s-113.5 14.938-163.2 43.336c-47.688 27.371-87.52 66.57-115.65 113.81-1.5312 2.5781-1.5312 5.7812 0 8.3594 28.133 47.242 67.965 86.441 115.65 113.81 49.703 28.398 105.96 43.336 163.2 43.336s113.5-14.938 163.2-43.336c47.711-27.363 87.559-66.562 115.71-113.81 1.5312-2.5781 1.5312-5.7812 0-8.3594zm-278.91 121.76c-31.184 0-61.09-12.387-83.141-34.438s-34.438-51.957-34.438-83.141 12.387-61.09 34.438-83.141 51.957-34.438 83.141-34.438 61.09 12.387 83.141 34.438 34.438 51.957 34.438 83.141c-0.035156 31.172-12.434 61.059-34.477 83.102-22.043 22.043-51.93 34.441-83.102 34.477z"/>
  <use x="70" y="576.40625" xlink:href="#x"/>
  <use x="74.011719" y="576.40625" xlink:href="#d"/>
  <use x="76.710938" y="576.40625" xlink:href="#a"/>
  <use x="80.417969" y="576.40625" xlink:href="#f"/>
  <use x="84.109375" y="576.40625" xlink:href="#c"/>
  <use x="86.722656" y="576.40625" xlink:href="#a"/>
  <use x="90.433594" y="576.40625" xlink:href="#l"/>
  <use x="96.25" y="576.40625" xlink:href="#k"/>
  <use x="100.167969" y="576.40625" xlink:href="#e"/>
  <use x="105.636719" y="576.40625" xlink:href="#j"/>
  <use x="109.59375" y="576.40625" xlink:href="#b"/>
  <use x="113.351562" y="576.40625" xlink:href="#w"/>
  <use x="117.265625" y="576.40625" xlink:href="#i"/>
  <use x="121.046875" y="576.40625" xlink:href="#v"/>
  <use x="125.277344" y="576.40625" xlink:href="#u"/>
  <use x="129.191406" y="576.40625" xlink:href="#d"/>
  <use x="131.890625" y="576.40625" xlink:href="#a"/>
  <use x="135.597656" y="576.40625" xlink:href="#h"/>
  <use x="137.472656" y="576.40625" xlink:href="#h"/>
  <use x="139.347656" y="576.40625" xlink:href="#i"/>
  <use x="141.222656" y="576.40625" xlink:href="#e"/>
  <use x="144.785156" y="576.40625" xlink:href="#f"/>
  <use x="148.476562" y="576.40625" xlink:href="#g"/>
  <use x="152.371094" y="576.40625" xlink:href="#c"/>
  <use x="154.984375" y="576.40625" xlink:href="#b"/>
  <use x="70" y="581.875" xlink:href="#t"/>
  <use x="72.378906" y="581.875" xlink:href="#d"/>
  <use x="75.078125" y="581.875" xlink:href="#b"/>
  <use x="78.832031" y="581.875" xlink:href="#s"/>
  <use x="86.4375" y="581.875" xlink:href="#c"/>
  <use x="89.050781" y="581.875" xlink:href="#r"/>
  <use x="92.941406" y="581.875" xlink:href="#a"/>
  <use x="98.554688" y="581.875" xlink:href="#q"/>
  <use x="103.132812" y="581.875" xlink:href="#b"/>
  <use x="106.890625" y="581.875" xlink:href="#p"/>
  <use x="110.785156" y="581.875" xlink:href="#g"/>
  <use x="116.582031" y="581.875" xlink:href="#o"/>
  <use x="120.589844" y="581.875" xlink:href="#d"/>
  <use x="123.285156" y="581.875" xlink:href="#b"/>
  <use x="127.042969" y="581.875" xlink:href="#n"/>
  <use x="128.917969" y="581.875" xlink:href="#a"/>
  <use x="132.625" y="581.875" xlink:href="#m"/>
  <use x="135.867188" y="581.875" xlink:href="#c"/>
 </g>
</svg>
