<?xml version="1.0" encoding="UTF-8"?>
<svg fill='#F2B90F' width="700pt" height="700pt" version="1.1" viewBox="0 0 700 700" xmlns="http://www.w3.org/2000/svg" xmlns:xlink="http://www.w3.org/1999/xlink">
 <g>
  <path d="m107.56 510.06 78.75-78.75 12.375 12.375-78.75 78.75z"/>
  <path d="m81.312 536.31 17.496-17.496 12.375 12.375-17.496 17.496z"/>
  <path d="m160.05 510.06 52.496-52.496 12.375 12.375-52.496 52.496z"/>
  <path d="m133.81 536.31 17.496-17.496 12.375 12.375-17.496 17.496z"/>
  <path d="m107.56 457.56 52.496-52.496 12.375 12.375-52.496 52.496z"/>
  <path d="m81.312 483.81 17.496-17.496 12.375 12.375-17.496 17.496z"/>
  <path d="m218.23 344.36-23.836 47.672 43.574 43.574 47.672-23.836z"/>
  <path d="m288.75 452.77c0 14.035-2.25 27.902-6.6836 41.211l-5.8203 17.457c29.551-21 47.504-55.316 47.504-91.98v-7.168l-35 17.5z"/>
  <path d="m200.22 341.25 17.5-35h-7.1758c-36.664 0-70.98 17.965-91.98 47.512l17.457-5.8203c13.324-4.4414 27.184-6.6914 41.203-6.6914z"/>
  <path d="m453.13 227.4c1.207-9.0625 1.8711-18.262 1.8711-27.562 0-13.699-11.141-24.84-24.84-24.84-9.3008 0-18.496 0.66406-27.562 1.8711 0.96875 27.449 23.082 49.562 50.531 50.531z"/>
  <path d="m350 288.75c0 4.832-3.918 8.75-8.75 8.75s-8.75-3.918-8.75-8.75 3.918-8.75 8.75-8.75 8.75 3.918 8.75 8.75"/>
  <path d="m498.75 192.5c0-33.766-27.477-61.25-61.25-61.25-22.328 0-42.227 12.215-52.922 30.914 14.832-3.0625 30.086-4.6641 45.582-4.6641 23.344 0 42.34 18.996 42.34 42.34 0 15.496-1.6016 30.738-4.6641 45.578 18.699-10.707 30.914-30.598 30.914-52.918z"/>
  <path d="m603.75 192.5c0-91.672-74.578-166.25-166.25-166.25s-166.25 74.578-166.25 166.25c0 9.5039 0.97266 19.129 2.7031 28.762 10.078-9.8711 20.914-18.707 32.402-26.391-0.035157-0.78906-0.10547-1.5742-0.10547-2.3711 0-72.371 58.879-131.25 131.25-131.25s131.25 58.879 131.25 131.25-58.879 131.25-131.25 131.25c-0.79688 0-1.5742-0.070312-2.3633-0.10547-7.6836 11.488-16.52 22.32-26.391 32.402 9.6445 1.7305 19.27 2.7031 28.754 2.7031 91.672 0 166.25-74.578 166.25-166.25z"/>
  <path d="m385.25 179.95c-37.844 8.3828-72.609 27.293-100.69 55.359-15.68 15.68-28.656 33.688-38.57 53.508l-19.52 39.043 75.672 75.66 39.035-19.52c19.828-9.9141 37.836-22.883 53.516-38.562 28.07-28.07 46.98-62.844 55.359-100.69-34.652-2.4336-62.363-30.152-64.805-64.801zm-44.004 170.05c-33.773 0-61.25-27.484-61.25-61.25s27.477-61.25 61.25-61.25 61.25 27.484 61.25 61.25-27.477 61.25-61.25 61.25z"/>
  <path d="m551.25 192.5c0-62.719-51.031-113.75-113.75-113.75-59.902 0-109.02 46.578-113.33 105.4 12.348-6.6758 25.289-12.117 38.668-16.328 10.566-32.078 40.535-54.074 74.66-54.074 43.418 0 78.75 35.324 78.75 78.75 0 34.117-21.996 64.086-54.066 74.656-4.207 13.379-9.6602 26.32-16.328 38.668 58.828-4.3086 105.39-53.422 105.39-113.32z"/>
  <path d="m341.25 245c-24.125 0-43.75 19.625-43.75 43.75s19.625 43.75 43.75 43.75 43.75-19.625 43.75-43.75-19.625-43.75-43.75-43.75zm0 70c-14.473 0-26.25-11.777-26.25-26.25s11.777-26.25 26.25-26.25 26.25 11.777 26.25 26.25-11.777 26.25-26.25 26.25z"/>
  <path d="m621.25 472.4-17.5 0.007812v-52.41h-17.5v52.43l-17.5 0.007812v-34.938h-17.5v34.949l-17.5 0.007812v-69.957h-17.5v69.965l-17.5 0.007812v-52.473h-17.5v52.492l-18.742 0.007812-14.883-96.758c-3.3789 0.18359-6.7109 0.50781-10.125 0.50781-2.5547 0-5.0391-0.28125-7.5703-0.38672l17.562 114.14 173.76-0.10547z"/>
  <path d="m253.86 202.58 0.40234-0.0625c-0.18359-3.332-0.50781-6.6289-0.50781-10.016 0-18.672 2.8281-36.672 8.0078-53.645l-9.25-60.113-33.758 0.015624v-52.508h-17.5v52.527l-17.5 0.007812v-35.035h-17.5v35.043l-17.5 0.007812v-70.051h-17.5v70.062l-17.5 0.007812v-52.57h-17.5v52.586l-17.5 0.011718 0.007812 17.5 158.73-0.097656z"/>
  <use x="70" y="691.25" xlink:href="#m"/>
  <use x="102.109375" y="691.25" xlink:href="#h"/>
  <use x="123.683594" y="691.25" xlink:href="#c"/>
  <use x="153.355469" y="691.25" xlink:href="#b"/>
  <use x="182.878906" y="691.25" xlink:href="#g"/>
  <use x="203.792969" y="691.25" xlink:href="#c"/>
  <use x="233.464844" y="691.25" xlink:href="#f"/>
  <use x="280.011719" y="691.25" xlink:href="#e"/>
  <use x="311.328125" y="691.25" xlink:href="#a"/>
  <use x="355.078125" y="691.25" xlink:href="#d"/>
  <use x="384.964844" y="691.25" xlink:href="#l"/>
  <use x="416.113281" y="691.25" xlink:href="#k"/>
  <use x="442.046875" y="691.25" xlink:href="#b"/>
  <use x="471.570312" y="691.25" xlink:href="#j"/>
  <use x="486.566406" y="691.25" xlink:href="#a"/>
  <use x="515.082031" y="691.25" xlink:href="#i"/>
 </g>
</svg>
