<?xml version="1.0" encoding="UTF-8"?>
<svg fill='#F2B90F' width="700pt" height="700pt" version="1.1" viewBox="0 0 700 700" xmlns="http://www.w3.org/2000/svg" xmlns:xlink="http://www.w3.org/1999/xlink">
 <g>
  <path d="m509.04 210.56-17.359 17.359c12.32 25.199 19.039 53.762 19.039 84 0 106.4-86.238 192.64-192.64 192.64-105.28-0.55859-192.08-86.797-192.08-193.2 0-106.4 86.238-192.64 192.64-192.64 30.238 0 58.238 6.7188 83.441 19.039l17.359-17.359v-21.281c-30.801-14.559-64.961-22.961-100.8-22.961-129.36 0-234.64 105.28-234.64 234.64s105.28 234.64 234.64 234.64 234.64-105.28 234.64-234.64c0-35.84-8.3984-70-22.961-100.8l-21.281 0.003906z"/>
  <path d="m318.64 205.52c5.0391 0 10.078 0.55859 15.121 1.1211l34.719-34.719c-15.68-6.1602-31.922-8.9609-49.84-8.9609-81.762 0.55859-147.84 66.641-147.84 148.4 0 81.762 66.078 148.4 148.4 148.4 81.762 0 148.4-66.641 148.4-148.4 0-17.359-3.3594-34.16-8.9609-49.84l-34.719 34.719c1.1211 5.0391 1.1211 10.078 1.1211 15.121 0 58.238-47.602 105.84-105.84 105.84-58.801 0-106.4-47.598-106.4-105.84 0-58.238 47.598-105.84 105.84-105.84z"/>
  <path d="m614.88 93.52c-2.2383-6.1602-8.3984-9.5195-14.559-9.5195h-53.762v-54.32c0-6.1602-3.9219-12.32-9.5195-14.559-6.1602-2.2383-12.879-1.1211-17.359 3.3594l-53.199 53.199c-2.8008 2.8008-4.4805 6.7188-4.4805 11.199v55.441l-117.6 117.04c-7.8398-3.9219-16.801-6.1602-25.762-6.1602-34.16 0-61.602 27.441-61.602 61.602 0 34.16 27.441 61.602 61.602 61.602 34.16 0 61.602-27.441 61.602-61.602 0-9.5195-2.2383-17.922-6.1602-25.762l117.6-117.04h55.441c3.9219 0 8.3984-1.6797 11.199-4.4805l53.199-53.199c4.4805-4.4805 5.6016-11.199 3.3594-16.801z"/>
  <use x="70" y="644" xlink:href="#x"/>
  <use x="90.550781" y="644" xlink:href="#c"/>
  <use x="104.359375" y="644" xlink:href="#a"/>
  <use x="123.347656" y="644" xlink:href="#l"/>
  <use x="142.242188" y="644" xlink:href="#b"/>
  <use x="155.628906" y="644" xlink:href="#a"/>
  <use x="174.617188" y="644" xlink:href="#k"/>
  <use x="204.410156" y="644" xlink:href="#j"/>
  <use x="224.453125" y="644" xlink:href="#i"/>
  <use x="252.453125" y="644" xlink:href="#h"/>
  <use x="274.121094" y="644" xlink:href="#w"/>
  <use x="283.71875" y="644" xlink:href="#g"/>
  <use x="293.316406" y="644" xlink:href="#f"/>
  <use x="309.914062" y="644" xlink:href="#a"/>
  <use x="338.652344" y="644" xlink:href="#v"/>
  <use x="361.894531" y="644" xlink:href="#a"/>
  <use x="380.882812" y="644" xlink:href="#u"/>
  <use x="397.550781" y="644" xlink:href="#g"/>
  <use x="407.148438" y="644" xlink:href="#t"/>
  <use x="427.191406" y="644" xlink:href="#e"/>
  <use x="70" y="672" xlink:href="#s"/>
  <use x="82.183594" y="672" xlink:href="#c"/>
  <use x="95.992188" y="672" xlink:href="#d"/>
  <use x="115.226562" y="672" xlink:href="#r"/>
  <use x="154.152344" y="672" xlink:href="#b"/>
  <use x="167.535156" y="672" xlink:href="#q"/>
  <use x="187.46875" y="672" xlink:href="#a"/>
  <use x="216.207031" y="672" xlink:href="#p"/>
  <use x="239.640625" y="672" xlink:href="#d"/>
  <use x="258.878906" y="672" xlink:href="#o"/>
  <use x="278.8125" y="672" xlink:href="#e"/>
  <use x="308.492188" y="672" xlink:href="#n"/>
  <use x="329.015625" y="672" xlink:href="#c"/>
  <use x="342.820312" y="672" xlink:href="#d"/>
  <use x="362.058594" y="672" xlink:href="#m"/>
  <use x="371.65625" y="672" xlink:href="#a"/>
  <use x="390.648438" y="672" xlink:href="#f"/>
  <use x="407.242188" y="672" xlink:href="#b"/>
 </g>
</svg>
