<?xml version="1.0" encoding="UTF-8"?>
<svg fill='#F2B90F' width="700pt" height="700pt" version="1.1" viewBox="0 0 700 700" xmlns="http://www.w3.org/2000/svg" xmlns:xlink="http://www.w3.org/1999/xlink">
 <g>
  <path d="m461.5 323.75c-18.156 0-35.57 7.2109-48.41 20.051-12.836 12.84-20.051 30.25-20.051 48.406s7.2148 35.57 20.051 48.41c12.84 12.84 30.254 20.051 48.41 20.051s35.57-7.2148 48.406-20.051c12.84-12.84 20.051-30.254 20.051-48.41-0.019531-18.148-7.2383-35.551-20.074-48.383-12.832-12.836-30.234-20.055-48.383-20.074zm37.734 52.234-42.855 41.84c-2.5508 2.4883-6.6211 2.4883-9.168 0l-23.789-23.223c-1.2578-1.2148-1.9805-2.8789-2.0078-4.6289-0.027344-1.7461 0.64453-3.4336 1.8672-4.6836 1.2188-1.25 2.8906-1.9609 4.6367-1.9766 1.75-0.015625 3.4297 0.66797 4.6719 1.8945l19.203 18.746 38.273-37.363v0.003906c1.2383-1.2422 2.9258-1.9375 4.6797-1.9258 1.7539 0.011719 3.4336 0.72266 4.6602 1.9766 1.2227 1.2578 1.8945 2.9531 1.8633 4.707-0.03125 1.7539-0.76562 3.4219-2.0352 4.6328z"/>
  <path d="m329.45 418.01c-3.3672-0.32422-5.9336-3.1523-5.9336-6.5352v-38.531c-0.003907-3.3828 2.5664-6.2109 5.9336-6.5352l23.898-2.3047c2.6797-9.9883 6.7266-19.562 12.02-28.449l-15.23-18.391c-2.1562-2.6055-1.9805-6.4297 0.41406-8.8242l27.18-27.18c2.3945-2.3945 6.2188-2.5742 8.8242-0.41406l18.355 15.199c8.8867-5.3164 18.477-9.3516 28.492-11.992l2.3047-23.895h-0.003906c0.32422-3.3633 3.1523-5.9336 6.5352-5.9336h18.453v-60.148c0-3.625 2.9375-6.5625 6.5625-6.5625h43.91l-198.59-144.58-198.59 144.58h43.906c3.625 0 6.5625 2.9375 6.5625 6.5625v251.81h199.2c-4.4922-8.0625-7.957-16.652-10.312-25.574z"/>
  <path d="m557.61 371.58c-2.5352-11.715-7.2266-22.852-13.84-32.844-1.6094-2.4102-1.4414-5.5938 0.40625-7.8242l14.449-17.445-18.441-18.676-17.391 14.398c-2.207 1.8203-5.3398 2.0078-7.7461 0.45703-10.043-6.5781-21.199-11.285-32.922-13.891-2.7852-0.60547-4.8633-2.9414-5.1406-5.7852l-2.1836-22.621h-26.609l-2.1797 22.621c-0.27734 2.8438-2.3555 5.1797-5.1406 5.7852-11.711 2.5352-22.848 7.2305-32.84 13.84-2.4102 1.6094-5.5938 1.4453-7.8281-0.40625l-17.414-14.422-18.73 18.73 14.422 17.418v-0.003906c1.8281 2.207 2.0117 5.3398 0.46094 7.7461-6.5781 10.047-11.285 21.199-13.891 32.922-0.60156 2.7891-2.9414 4.8711-5.7852 5.1445l-22.625 2.1797v26.613l22.621 2.1797h0.003907c2.8398 0.27344 5.1797 2.3516 5.7852 5.1406 2.5352 11.711 7.2266 22.844 13.84 32.836 1.6055 2.4141 1.4414 5.5938-0.40625 7.8281l-2.5742 3.1094-0.011719 0.011719-11.84 14.301 18.73 18.727 17.418-14.422c2.2031-1.8281 5.3398-2.0117 7.7461-0.46094 10.043 6.5781 21.199 11.285 32.922 13.891 2.7891 0.60547 4.8672 2.9453 5.1406 5.7852l2.1797 22.625 26.605-0.003906 2.1797-22.625v0.003906c0.27344-2.8398 2.3516-5.1797 5.1406-5.7852 11.711-2.5352 22.848-7.2266 32.84-13.84 2.4102-1.6055 5.5938-1.4414 7.8242 0.40625l17.418 14.422 18.73-18.727-14.422-17.418c-1.8281-2.2031-2.0156-5.3359-0.46094-7.7422 6.5781-10.047 11.281-21.199 13.891-32.922 0.60156-2.7891 2.9375-4.8672 5.7773-5.1406l22.285-2.1719v-26.621l-22.609-2.1797c-2.8438-0.27344-5.1836-2.3555-5.7852-5.1445zm-96.109 102.21c-21.637 0-42.391-8.5977-57.688-23.895-15.301-15.301-23.898-36.051-23.898-57.691 0-21.637 8.5977-42.387 23.895-57.688 15.301-15.301 36.051-23.895 57.691-23.895 21.637 0 42.387 8.5938 57.688 23.895 15.301 15.301 23.895 36.051 23.895 57.688-0.023437 21.629-8.625 42.367-23.922 57.66-15.293 15.297-36.031 23.898-57.66 23.926z"/>
  <path d="m477.07 146.46v-60.254h-33.059v36.184z"/>
  <use x="70" y="576.40625" xlink:href="#w"/>
  <use x="74.011719" y="576.40625" xlink:href="#d"/>
  <use x="76.710938" y="576.40625" xlink:href="#a"/>
  <use x="80.417969" y="576.40625" xlink:href="#k"/>
  <use x="84.109375" y="576.40625" xlink:href="#c"/>
  <use x="86.722656" y="576.40625" xlink:href="#a"/>
  <use x="90.433594" y="576.40625" xlink:href="#j"/>
  <use x="96.25" y="576.40625" xlink:href="#i"/>
  <use x="100.167969" y="576.40625" xlink:href="#h"/>
  <use x="105.636719" y="576.40625" xlink:href="#g"/>
  <use x="107.667969" y="576.40625" xlink:href="#f"/>
  <use x="110.910156" y="576.40625" xlink:href="#b"/>
  <use x="114.667969" y="576.40625" xlink:href="#e"/>
  <use x="118.5625" y="576.40625" xlink:href="#v"/>
  <use x="122.476562" y="576.40625" xlink:href="#a"/>
  <use x="126.183594" y="576.40625" xlink:href="#a"/>
  <use x="129.894531" y="576.40625" xlink:href="#u"/>
  <use x="133.53125" y="576.40625" xlink:href="#t"/>
  <use x="137.335938" y="576.40625" xlink:href="#s"/>
  <use x="70" y="581.875" xlink:href="#r"/>
  <use x="72.378906" y="581.875" xlink:href="#d"/>
  <use x="75.078125" y="581.875" xlink:href="#b"/>
  <use x="78.832031" y="581.875" xlink:href="#q"/>
  <use x="86.4375" y="581.875" xlink:href="#c"/>
  <use x="89.050781" y="581.875" xlink:href="#p"/>
  <use x="92.941406" y="581.875" xlink:href="#a"/>
  <use x="98.554688" y="581.875" xlink:href="#o"/>
  <use x="103.132812" y="581.875" xlink:href="#b"/>
  <use x="106.890625" y="581.875" xlink:href="#n"/>
  <use x="110.785156" y="581.875" xlink:href="#e"/>
  <use x="116.582031" y="581.875" xlink:href="#m"/>
  <use x="120.589844" y="581.875" xlink:href="#d"/>
  <use x="123.285156" y="581.875" xlink:href="#b"/>
  <use x="127.042969" y="581.875" xlink:href="#l"/>
  <use x="128.917969" y="581.875" xlink:href="#a"/>
  <use x="132.625" y="581.875" xlink:href="#f"/>
  <use x="135.867188" y="581.875" xlink:href="#c"/>
 </g>
</svg>
